<?xml version="1.0" encoding="UTF-8" standalone="no"?>
<!-- Created with Inkscape (http://www.inkscape.org/) -->

<svg
   width="123.0959mm"
   height="31.668373mm"
   viewBox="0 0 123.09589 31.668373"
   version="1.1"
   id="svg1"
   inkscape:version="1.4.2 (f4327f4, 2025-05-13)"
   sodipodi:docname="Scene Scheduler Logo (with paths).svg"
   xmlns:inkscape="http://www.inkscape.org/namespaces/inkscape"
   xmlns:sodipodi="http://sodipodi.sourceforge.net/DTD/sodipodi-0.dtd"
   xmlns="http://www.w3.org/2000/svg"
   xmlns:svg="http://www.w3.org/2000/svg">
  <sodipodi:namedview
     id="namedview1"
     pagecolor="#ffffff"
     bordercolor="#000000"
     borderopacity="0.25"
     inkscape:showpageshadow="2"
     inkscape:pageopacity="0.0"
     inkscape:pagecheckerboard="0"
     inkscape:deskcolor="#d1d1d1"
     inkscape:document-units="mm"
     inkscape:zoom="0.7581159"
     inkscape:cx="164.88244"
     inkscape:cy="16.488244"
     inkscape:window-width="1280"
     inkscape:window-height="953"
     inkscape:window-x="-8"
     inkscape:window-y="-8"
     inkscape:window-maximized="1"
     inkscape:current-layer="svg1"
     showgrid="true">
    <inkscape:grid
       id="grid1"
       units="mm"
       originx="-4.7624998"
       originy="-2.1166668"
       spacingx="0.99999999"
       spacingy="0.99999999"
       empcolor="#0099e5"
       empopacity="0.30196078"
       color="#0099e5"
       opacity="0.14901961"
       empspacing="5"
       enabled="true"
       visible="true" />
  </sodipodi:namedview>
  <defs
     id="defs1">
    <rect
       x="323.16959"
       y="307.34088"
       width="277.0025"
       height="96.291351"
       id="rect1" />
    <filter
       style="color-interpolation-filters:sRGB"
       inkscape:label="Hue to White"
       id="filter2-4"
       x="0"
       y="0"
       width="1"
       height="1"
       inkscape:menu-tooltip="Fades hue progressively to white"
       inkscape:menu="Color">
      <feColorMatrix
         values="1 0 0 0 0 0 1 0 0 0 0 0 1 0 0 -0.21 -0.72 -0.07 2 0 "
         result="fbSourceGraphic"
         id="feColorMatrix2-1" />
      <feColorMatrix
         result="fbSourceGraphicAlpha"
         in="fbSourceGraphic"
         values="0 0 0 -1 0 0 0 0 -1 0 0 0 0 -1 0 0 0 0 1 0"
         id="feColorMatrix3-1" />
      <feColorMatrix
         id="feColorMatrix4-3"
         values="0 0 1 0 0 0 1 0 0 0 1 0 0 0 0 -0.21 -0.72 -0.07 2 0 "
         result="fbSourceGraphic"
         in="fbSourceGraphic" />
      <feColorMatrix
         result="fbSourceGraphicAlpha"
         in="fbSourceGraphic"
         values="0 0 0 -1 0 0 0 0 -1 0 0 0 0 -1 0 0 0 0 1 0"
         id="feColorMatrix5-8" />
      <feColorMatrix
         id="feColorMatrix6-7"
         values="0 1 0 0 0 1 0 0 0 0 0 0 1 0 0 -0.21 -0.72 -0.07 2 0 "
         result="fbSourceGraphic"
         in="fbSourceGraphic" />
      <feColorMatrix
         result="fbSourceGraphicAlpha"
         in="fbSourceGraphic"
         values="0 0 0 -1 0 0 0 0 -1 0 0 0 0 -1 0 0 0 0 1 0"
         id="feColorMatrix19-4" />
      <feColorMatrix
         id="feColorMatrix20-2"
         values="1 0 0 0 0 1 0 0 0 0 1 0 0 0 0 0 0 0 0 1 "
         type="matrix"
         result="r"
         in="fbSourceGraphic" />
      <feColorMatrix
         id="feColorMatrix21-7"
         values="0 1 0 0 0 0 1 0 0 0 0 1 0 0 0 0 0 0 0 1 "
         type="matrix"
         result="g"
         in="fbSourceGraphic" />
      <feColorMatrix
         id="feColorMatrix22-7"
         values="0 0 1 0 0 0 0 1 0 0 0 0 1 0 0 0 0 0 0 1 "
         type="matrix"
         result="b"
         in="fbSourceGraphic" />
      <feBlend
         id="feBlend22-9"
         result="minrg"
         in="r"
         mode="darken"
         in2="g" />
      <feBlend
         id="feBlend23-3"
         result="p"
         in="minrg"
         mode="darken"
         in2="b" />
      <feBlend
         id="feBlend24-1"
         result="maxrg"
         in="r"
         mode="lighten"
         in2="g" />
      <feBlend
         id="feBlend25-9"
         result="q"
         in="maxrg"
         mode="lighten"
         in2="b" />
      <feComponentTransfer
         id="feComponentTransfer25-8"
         result="q2"
         in="q">
        <feFuncR
           id="feFuncR25-6"
           slope="0"
           type="linear" />
      </feComponentTransfer>
      <feBlend
         id="feBlend26-5"
         result="pq"
         in="p"
         mode="lighten"
         in2="q2" />
      <feColorMatrix
         id="feColorMatrix26-0"
         values="-1 1 0 0 0 -1 1 0 0 0 -1 1 0 0 0 0 0 0 0 1 "
         type="matrix"
         result="qminp"
         in="pq" />
      <feComposite
         id="feComposite26-2"
         k3="1"
         operator="arithmetic"
         result="qminpc"
         in="qminp"
         in2="qminp"
         k1="0"
         k2="0"
         k4="0" />
      <feBlend
         id="feBlend27-8"
         result="result2"
         in2="fbSourceGraphic"
         mode="screen" />
      <feComposite
         id="feComposite27-6"
         operator="in"
         in="result2"
         in2="fbSourceGraphic"
         result="result1" />
    </filter>
  </defs>
  <path
     d="m 3.5586461,15.229138 c -0.07408,0 -0.140229,-0.32544 -0.140229,-0.72496 0,-0.39952 0.05821,-0.72231 0.140229,-0.72231 h 3.5665837 c 0.07408,0 0.140229,0.32544 0.140229,0.72231 0,0.39952 -0.05821,0.72496 -0.140229,0.72496 z m 5.6858967,0 c -0.07408,0 -0.140229,-0.32544 -0.140229,-0.72496 0,-0.39952 0.05821,-0.72231 0.140229,-0.72231 h 3.5665842 c 0.07408,0 0.140229,0.32544 0.140229,0.72231 0,0.39952 -0.05821,0.72496 -0.140229,0.72496 z m 5.6858972,0 c -0.0741,0 -0.14023,-0.32544 -0.14023,-0.72496 0,-0.39952 0.0582,-0.72231 0.14023,-0.72231 h 3.56658 c 0.0741,0 0.14023,0.32279 0.14023,0.71967 -0.35719,0.22225 -0.70114,0.46566 -1.02923,0.7276 z m -11.3638569,4.14867 c -0.07408,0 -0.140229,-0.32544 -0.140229,-0.72496 0,-0.39952 0.05821,-0.72496 0.140229,-0.72496 h 3.5665837 c 0.07408,0 0.140229,0.32544 0.140229,0.72496 0,0.39952 -0.05821,0.72496 -0.140229,0.72496 z m 5.6858977,0 c -0.07408,0 -0.14023,-0.32544 -0.14023,-0.72496 0,-0.39952 0.05821,-0.72496 0.14023,-0.72496 h 3.5665842 c 0.07408,0 0.140229,0.32544 0.140229,0.72496 0,0.39952 -0.05821,0.72496 -0.140229,0.72496 z m -5.6779597,4.15131 c -0.07408,0 -0.140229,-0.32544 -0.140229,-0.72496 0,-0.39952 0.05821,-0.72496 0.140229,-0.72496 h 3.5665837 c 0.07408,0 0.140229,0.32544 0.140229,0.72496 0,0.39952 -0.05821,0.72496 -0.140229,0.72496 z m 5.6858967,0 c -0.07408,0 -0.140229,-0.32544 -0.140229,-0.72496 0,-0.39952 0.05821,-0.72496 0.140229,-0.72496 h 3.5665842 c 0.07408,0 0.140229,0.32544 0.140229,0.72496 0,0.39952 -0.05821,0.72496 -0.140229,0.72496 z M 1.4393331,10.302598 H 26.33134 V 4.9050971 c 0,-0.185208 -0.0741,-0.346604 -0.19315,-0.465667 -0.11906,-0.119062 -0.2884,-0.193146 -0.46567,-0.193146 h -2.38654 c -0.39952,0 -0.72496,-0.325437 -0.72496,-0.724958 0,-0.399521 0.32544,-0.724958 0.72496,-0.724958 h 2.38654 c 0.58473,0 1.10861,0.235479 1.49225,0.619125 0.38365,0.383646 0.61913,0.907521 0.61913,1.49225 v 8.5698549 c -0.47625,-0.16404 -0.96573,-0.29633 -1.46844,-0.39423 v -1.33879 h 0.0159 -24.8920069 v 13.97794 c 0,0.1852 0.07408,0.3466 0.193146,0.46566 0.119063,0.11907 0.288396,0.19315 0.465667,0.19315 H 13.92767 c 0.13494,0.50271 0.30427,0.99219 0.508,1.463135 H 2.1113751 c -0.582083,0 -1.108604,-0.235465 -1.49225,-0.619115 C 0.235479,26.844348 0,26.320468 0,25.735748 V 4.9103891 c 0,-0.582084 0.235479,-1.108605 0.6191251,-1.49225 0.383646,-0.383646 0.907521,-0.619125 1.49225,-0.619125 h 2.547937 c 0.399521,0 0.7249587,0.325437 0.7249587,0.724958 0,0.399521 -0.3254377,0.724958 -0.7249587,0.724958 h -2.547937 c -0.185208,0 -0.346604,0.07408 -0.465667,0.193146 -0.119062,0.119063 -0.193146,0.288396 -0.193146,0.465667 v 5.3975049 h -0.01323 z M 11.395606,4.2462841 c -0.39952,0 -0.724958,-0.325437 -0.724958,-0.724958 0,-0.399521 0.325438,-0.724958 0.724958,-0.724958 h 4.857754 c 0.39952,0 0.72495,0.325437 0.72495,0.724958 0,0.399521 -0.32543,0.724958 -0.72495,0.724958 z"
     id="path1-6"
     style="fill:#000000;fill-opacity:1;stroke:none;stroke-width:0.264583;stroke-opacity:1"
     sodipodi:nodetypes="ssssssssssssssssssccsssssssssssssssssssssssssssssccssssssssscccccsssccscsssssssssscccsssssss"
     inkscape:export-filename="path1-6.png"
     inkscape:export-xdpi="96"
     inkscape:export-ydpi="96" />
  <path
     id="path1-61"
     style="fill:#000000;fill-opacity:1;stroke:none;stroke-width:0.146315;stroke-dasharray:none;stroke-opacity:1"
     d="m 8.0025388,0 c -0.72496,0 -1.307413,0.4812321 -1.307413,1.0712531 v 4.688604 c 0,0.59266 0.582453,1.07177 1.307413,1.07177 0.722312,0 1.306898,-0.48175 1.306898,-1.07177 V 1.0712531 C 9.3094368,0.4785861 8.7274968,0 8.0025388,0 Z m 0.02635,0.8516271 c 0.370245,-0.0024 0.495739,0.186219 0.498163,0.625285 l 0.02119,3.825085 c 0.0024,0.43711 -0.122314,0.61082 -0.519348,0.61082 -0.412198,0 -0.540021,-0.14384 -0.540021,-0.58291 v -3.839041 c 0,-0.437116 0.142214,-0.636577 0.540021,-0.639239 z" />
  <path
     id="path1-61-2"
     style="fill:#000000;fill-opacity:1;stroke:none;stroke-width:0.146315;stroke-dasharray:none;stroke-opacity:1"
     d="m 19.81887,0.009477 c -0.72495,0 -1.30741,0.4812321 -1.30741,1.0712531 v 4.688597 c 0,0.59267 0.58246,1.07177 1.30741,1.07177 0.72232,0 1.3069,-0.48174 1.3069,-1.07177 v -4.688597 c 0,-0.592667 -0.58194,-1.0712531 -1.3069,-1.0712531 z m 0.0264,0.8516281 c 0.37024,-0.0024 0.49573,0.186219 0.49816,0.625284 l 0.0212,3.825088 c 0.002,0.43711 -0.12232,0.61082 -0.51935,0.61082 -0.4122,0 -0.54002,-0.14384 -0.54002,-0.58291 v -3.839046 c 0,-0.437116 0.14221,-0.636575 0.54002,-0.639236 z" />
  <path
     d="m 24.06611,14.991688 c 1.12712,0 2.20398,0.2249 3.18823,0.63236 1.02394,0.42333 1.94204,1.04245 2.70933,1.80975 0.76729,0.76729 1.38642,1.68804 1.80975,2.70668 0.40746,0.98425 0.63236,2.06111 0.63236,3.18823 0,1.12713 -0.2249,2.20398 -0.63236,3.18823 -0.42333,1.02394 -1.04246,1.942035 -1.80975,2.709325 -0.76729,0.7673 -1.68804,1.38642 -2.70669,1.80975 -0.98425,0.40746 -2.0611,0.63236 -3.18823,0.63236 -1.12712,0 -2.20398,-0.2249 -3.18823,-0.63236 -1.02393,-0.42333 -1.94204,-1.04245 -2.70933,-1.80975 -0.76729,-0.76729 -1.38642,-1.688035 -1.80975,-2.709325 -0.40746,-0.98425 -0.63235,-2.0611 -0.63235,-3.18823 0,-1.12712 0.22489,-2.20398 0.63235,-3.18823 0.42333,-1.02393 1.04246,-1.94204 1.80975,-2.70933 0.76729,-0.76729 1.68804,-1.38642 2.70669,-1.80975 0.98425,-0.40481 2.05846,-0.62971 3.18823,-0.62971 z m 4.86304,3.47398 c -0.635,-0.635 -1.39171,-1.14565 -2.23044,-1.49225 -0.80962,-0.33602 -1.69862,-0.51858 -2.6326,-0.51858 -0.93398,0 -1.82298,0.18521 -2.63261,0.51858 -0.83873,0.3466 -1.59543,0.85725 -2.23043,1.49225 -0.635,0.635 -1.14565,1.39171 -1.49225,2.23044 -0.33602,0.80962 -0.51859,1.69862 -0.51859,2.6326 0,0.93398 0.18521,1.82298 0.51859,2.63261 0.3466,0.83873 0.85725,1.59543 1.49225,2.230425 0.635,0.635 1.3917,1.14565 2.23043,1.49225 0.80963,0.33602 1.69863,0.51859 2.63261,0.51859 0.93398,0 1.82298,-0.18521 2.6326,-0.51859 0.83873,-0.3466 1.59544,-0.85725 2.23044,-1.49225 1.24619,-1.246175 2.01348,-2.963325 2.01348,-4.863035 0,-0.93398 -0.18521,-1.82298 -0.51858,-2.6326 -0.34925,-0.83873 -0.8599,-1.59544 -1.4949,-2.23044 z"
     style="fill:#000000;fill-opacity:1;stroke-width:0.264583"
     id="path1-3-4" />
  <path
     d="m 257.02468,287.86631 c 4.66462,-8.16314 3.07481,-18.46589 -3.83353,-24.84323 -6.90834,-6.37733 -17.3051,-7.13982 -25.06993,-1.83859 -9.28386,6.37644 -11.55249,19.11757 -5.04015,28.30661 0.75772,0.9424 -4.73769,8.03406 -7.62101,9.78738 -13.57062,7.80847 -30.85625,3.98133 -39.86246,-8.82578 5.46557,7.04178 14.90255,9.6655 23.21843,6.45533 8.31587,-3.21017 13.54209,-11.49433 12.8584,-20.38205 -0.8544,-11.22784 -10.73127,-19.585 -21.94564,-18.56895 -1.18228,0.19365 -2.33309,-0.48891 -2.73008,-1.61926 -1.18456,-3.21605 -1.79801,-6.61436 -1.81268,-10.0416 -0.0372,-15.94488 12.29941,-29.18546 28.20713,-30.27403 -12.496,1.24702 -20.83135,13.48112 -17.41924,25.56672 3.41212,12.0856 16.91485,18.15417 28.21797,12.68201 4.24922,-2.00503 18.71235,-9.43578 21.5422,-7.72049 14.52993,8.28891 19.58568,26.78952 11.29059,41.31593 z"
     transform="matrix(0.12068352,0,0,0.12068352,-1.9135891,-8.5958669)"
     style="clip-rule:evenodd;fill:#000000;fill-opacity:1;fill-rule:evenodd;stroke:none;stroke-width:0.219237;stroke-dasharray:none;stroke-opacity:1;paint-order:fill markers stroke;filter:url(#filter2-4)"
     id="path1-2-6" />
  <path
     d="m 40.150447,14.881476 q 0,0.405143 -0.256314,0.661457 -0.248047,0.256315 -0.653189,0.256315 h -3.257676 q -0.405142,0 -0.669725,-0.256315 -0.256315,-0.256314 -0.256315,-0.661457 v -3.28248 h 1.149282 v 3.183262 h 2.794656 V 11.698214 L 35.429298,7.382207 Q 35.057228,6.9357235 35.057228,6.3982897 V 3.7772662 q 0,-0.4051424 0.256315,-0.661457 0.264583,-0.2563146 0.669725,-0.2563146 h 3.257676 q 0.405142,0 0.653189,0.2563146 0.256314,0.2563146 0.256314,0.661457 V 6.7868957 H 39.001166 V 3.8764847 H 36.20651 V 6.604995 l 3.588404,4.316007 q 0.355533,0.429947 0.355533,0.967381 z m 6.366524,-0.01654 q 0,0.934308 -0.926039,0.934308 h -2.612756 q -0.926039,0 -0.926039,-0.934308 V 8.6885846 q 0,-0.934308 0.926039,-0.934308 h 2.612756 q 0.926039,0 0.926039,0.934308 V 10.292618 H 45.433836 V 8.7216575 h -2.282027 v 6.1102095 h 2.282027 v -1.794202 h 1.083135 z m 6.283842,0 q 0,0.934308 -0.926039,0.934308 h -2.645828 q -0.92604,0 -0.92604,-0.934308 V 8.6885846 q 0,-0.934308 0.92604,-0.934308 h 2.645828 q 0.926039,0 0.926039,0.934308 v 2.8938744 l -0.372069,0.388606 h -3.059239 v 2.910411 h 2.364709 v -1.471742 h 1.066599 z M 51.734214,11.094635 V 8.6720482 h -2.364709 v 2.4225868 z m 7.507538,4.704613 H 58.14208 V 8.7381939 l -2.422587,0.066146 V 15.799248 H 54.619821 V 7.7542766 h 1.099672 v 0.2232417 q 0.644921,-0.082682 1.29811,-0.1736324 0.793748,-0.099219 1.306378,-0.099219 0.917771,0 0.917771,0.9012352 z m 6.275572,-0.934308 q 0,0.934308 -0.92604,0.934308 h -2.645828 q -0.92604,0 -0.92604,-0.934308 V 8.6885846 q 0,-0.934308 0.92604,-0.934308 h 2.645828 q 0.92604,0 0.92604,0.934308 v 2.8938744 l -0.372069,0.388606 h -3.059239 v 2.910411 h 2.364709 v -1.471742 h 1.066599 z M 64.450725,11.094635 V 8.6720482 h -2.364709 v 2.4225868 z m 11.37706,3.786841 q 0,0.405143 -0.256315,0.661457 -0.248046,0.256315 -0.653188,0.256315 h -3.257676 q -0.405143,0 -0.669726,-0.256315 -0.256314,-0.256314 -0.256314,-0.661457 v -3.28248 h 1.149281 v 3.183262 h 2.794656 V 11.698214 L 71.106635,7.382207 Q 70.734566,6.9357235 70.734566,6.3982897 V 3.7772662 q 0,-0.4051424 0.256314,-0.661457 0.264583,-0.2563146 0.669726,-0.2563146 h 3.257676 q 0.405142,0 0.653188,0.2563146 0.256315,0.2563146 0.256315,0.661457 V 6.7868957 H 74.678503 V 3.8764847 H 71.883847 V 6.604995 l 3.588405,4.316007 q 0.355533,0.429947 0.355533,0.967381 z m 6.366525,-0.01654 q 0,0.934308 -0.92604,0.934308 h -2.612756 q -0.926039,0 -0.926039,-0.934308 V 8.6885846 q 0,-0.934308 0.926039,-0.934308 h 2.612756 q 0.92604,0 0.92604,0.934308 V 10.292618 H 81.111174 V 8.7216575 h -2.282027 v 6.1102095 h 2.282027 v -1.794202 h 1.083136 z m 6.407866,0.934308 H 87.502504 V 8.7381939 l -2.422586,0.066146 V 15.799248 H 83.980245 V 2.8594946 h 1.099673 v 5.1180237 q 0.653188,-0.082682 1.306377,-0.1653642 0.826821,-0.1074868 1.29811,-0.1074868 0.917771,0 0.917771,0.9012352 z M 94.87775,14.86494 q 0,0.934308 -0.92604,0.934308 h -2.645828 q -0.92604,0 -0.92604,-0.934308 V 8.6885846 q 0,-0.934308 0.92604,-0.934308 h 2.645828 q 0.92604,0 0.92604,0.934308 v 2.8938744 l -0.372069,0.388606 h -3.059239 v 2.910411 h 2.364709 V 13.409734 H 94.87775 Z M 93.811151,11.094635 V 8.6720482 h -2.364709 v 2.4225868 z m 7.457929,4.704613 h -1.09141 v -0.223242 q -1.769394,0.272851 -1.959563,0.272851 -0.702798,0 -1.132745,-0.471288 -0.429947,-0.479556 -0.429947,-1.190623 V 9.4823331 q 0,-0.7441392 0.487824,-1.2319637 0.487825,-0.4960928 1.223696,-0.4960928 h 1.810735 v -4.894782 h 1.09141 z m -1.09141,-1.000454 V 8.7216575 h -1.521348 q -0.909503,0 -0.909503,0.9343081 v 4.2994704 q 0,0.92604 0.909503,0.92604 0.214974,0 1.521348,-0.08268 z m 7.50754,1.000454 h -1.08313 v -0.223242 q -0.66146,0.09095 -1.31465,0.173632 -0.79375,0.09922 -1.31465,0.09922 -0.89296,0 -0.89296,-0.892967 V 7.7542766 h 1.08313 V 14.81533 l 2.43913,-0.06614 V 7.7542766 h 1.08313 z m 2.94349,0 h -1.08314 V 2.8594946 h 1.08314 z m 6.36652,-0.934308 q 0,0.934308 -0.92604,0.934308 h -2.64583 q -0.92604,0 -0.92604,-0.934308 V 8.6885846 q 0,-0.934308 0.92604,-0.934308 h 2.64583 q 0.92604,0 0.92604,0.934308 v 2.8938744 l -0.37207,0.388606 h -3.05924 v 2.910411 h 2.36471 v -1.471742 h 1.0666 z m -1.0666,-3.770305 V 8.6720482 h -2.36471 v 2.4225868 z m 7.09412,-0.69453 h -1.08313 V 8.7381939 l -2.02572,0.066146 v 6.9949084 h -1.09967 V 7.7542766 h 1.09967 v 0.2232417 q 0.54571,-0.082682 1.09968,-0.1736324 0.66145,-0.099219 1.09967,-0.099219 0.9095,0 0.9095,0.9012352 z"
     id="text2"
     style="font-size:16.9333px;font-family:'Agency FB';-inkscape-font-specification:'Agency FB, Normal';stroke:#000000;stroke-width:0.146315;paint-order:fill markers stroke"
     aria-label="Scene Scheduler" />
  <path
     style="font-size:8.69256px;font-family:'Agency FB';-inkscape-font-specification:'Agency FB, Normal';stroke:#000000;stroke-width:0.150219;paint-order:fill markers stroke"
     d="m 51.052191,27.271038 h -0.585729 l -0.233443,-1.477056 h -1.320012 l -0.233443,1.477056 h -0.568752 v -0.01698 l 1.184192,-6.642508 h 0.581485 z m -0.895571,-1.999119 -0.581485,-3.599263 -0.585729,3.599263 z m 3.989749,1.999119 h -0.556018 v -0.114599 q -0.339553,0.04669 -0.674862,0.08913 -0.407463,0.05093 -0.674862,0.05093 -0.458396,0 -0.458396,-0.458397 v -3.696885 h 0.556018 v 3.62473 l 1.252102,-0.03396 v -3.590774 h 0.556018 z m 2.406583,0 h -0.802194 q -0.475375,0 -0.475375,-0.479619 V 23.63782 h -0.496596 v -0.496597 h 0.496596 v -1.286057 h 0.556019 v 1.286057 h 0.72155 v 0.496597 h -0.72155 v 3.136622 h 0.72155 z m 3.094178,-0.479619 q 0,0.479619 -0.479619,0.479619 h -1.417634 q -0.475375,0 -0.475375,-0.479619 v -3.170577 q 0,-0.479619 0.475375,-0.479619 h 1.417634 q 0.479619,0 0.479619,0.479619 z m -0.564507,-0.01698 V 23.63782 h -1.243614 v 3.136622 z m 5.636582,0.496596 h -0.564507 v -3.62473 l -1.23088,0.03396 v 3.590774 h -0.560263 v -3.62473 l -1.23088,0.03396 v 3.590774 h -0.564507 v -4.129815 h 0.564507 v 0.114599 q 0.331064,-0.04244 0.662129,-0.08913 0.403219,-0.05093 0.666373,-0.05093 0.258909,0 0.381997,0.157043 0.356531,-0.04669 0.708817,-0.09762 0.462641,-0.05942 0.700329,-0.05942 0.466885,0 0.466885,0.462641 z m 3.251221,0 h -0.556018 v -0.114599 q -0.335309,0.04669 -0.670618,0.08913 -0.415952,0.05093 -0.666373,0.05093 -0.462641,0 -0.462641,-0.458397 v -1.506767 q 0,-0.475375 0.479619,-0.475375 h 1.328502 v -1.243613 h -1.213903 v 0.704573 h -0.547529 v -0.696084 q 0,-0.479619 0.475374,-0.479619 h 1.358213 q 0.475374,0 0.475374,0.479619 z m -0.547529,-0.513574 v -1.460079 h -1.260591 v 1.485545 z m 2.958356,0.513574 h -0.802194 q -0.475374,0 -0.475374,-0.479619 V 23.63782 h -0.496597 v -0.496597 h 0.496597 v -1.286057 h 0.556018 v 1.286057 h 0.72155 v 0.496597 h -0.72155 v 3.136622 h 0.72155 z m 3.030513,-0.479619 q 0,0.479619 -0.475375,0.479619 h -1.358212 q -0.475374,0 -0.475374,-0.479619 v -3.170577 q 0,-0.479619 0.475374,-0.479619 h 1.358212 q 0.475375,0 0.475375,0.479619 v 1.485545 l -0.190999,0.199487 h -1.570433 v 1.494034 h 1.213902 v -0.755506 h 0.54753 z m -0.54753,-1.935453 v -1.243613 h -1.213902 v 1.243613 z m 5.50925,-1.714743 -0.993193,4.09586 -0.411708,1.600144 h -0.556019 l 0.415953,-1.600144 -1.018659,-4.09586 h 0.581484 l 0.704573,3.251221 0.713062,-3.251221 z m 3.064467,3.650196 q 0,0.479619 -0.479619,0.479619 H 79.5407 q -0.475375,0 -0.475375,-0.479619 v -3.170577 q 0,-0.479619 0.475375,-0.479619 h 1.417634 q 0.479619,0 0.479619,0.479619 z m -0.564507,-0.01698 V 23.63782 h -1.243614 v 3.136622 z m 3.849685,0.496596 h -0.556019 v -0.114599 q -0.339553,0.04669 -0.674861,0.08913 -0.407464,0.05093 -0.674862,0.05093 -0.458397,0 -0.458397,-0.458397 v -3.696885 h 0.556018 v 3.62473 l 1.252102,-0.03396 v -3.590774 h 0.556019 z m 3.081443,-2.771602 h -0.556018 v -0.853128 l -1.039882,0.03396 v 3.590774 h -0.564507 v -4.129815 h 0.564507 v 0.114599 q 0.280132,-0.04244 0.564507,-0.08913 0.339554,-0.05093 0.564508,-0.05093 0.466885,0 0.466885,0.462641 z m 5.292785,2.300472 q 0,0.207976 -0.135821,0.339553 -0.131577,0.131577 -0.339553,0.131577 h -1.859054 q -0.207976,0 -0.339553,-0.131577 -0.131577,-0.131577 -0.131577,-0.339553 V 21.09966 q 0,-0.207976 0.131577,-0.339553 0.131577,-0.131577 0.339553,-0.131577 h 1.859054 q 0.207976,0 0.339553,0.131577 0.135821,0.131577 0.135821,0.339553 z m -0.589973,-0.05093 v -5.598382 h -1.625611 v 5.598382 z m 4.312324,0.05093 q 0,0.207976 -0.131577,0.339553 -0.131577,0.131577 -0.339553,0.131577 H 94.158462 V 20.62853 h 2.17314 q 0.207977,0 0.339554,0.131577 0.131576,0.131577 0.131576,0.339553 v 1.973652 q 0,0.263154 -0.237687,0.44142 -0.233443,0.140065 -0.466885,0.280131 l 0.500841,0.322575 q 0.220709,0.135822 0.220709,0.424442 z m -0.611196,-3.650196 v -1.999119 h -1.460078 v 2.398094 h 0.870105 z m 0.01698,3.599263 V 24.452747 L 95.62703,24.062261 h -0.878594 v 2.686714 z m 4.214698,0.05093 q 0,0.207976 -0.13157,0.339553 -0.12734,0.131577 -0.335312,0.131577 h -1.672299 q -0.207977,0 -0.343798,-0.131577 -0.131577,-0.131577 -0.131577,-0.339553 v -1.685032 h 0.589974 v 1.634099 H 99.85022 V 25.165809 L 98.016633,22.950224 Q 97.825634,22.721026 97.825634,22.445139 V 21.09966 q 0,-0.207976 0.131577,-0.339553 0.135821,-0.131577 0.343798,-0.131577 h 1.672299 q 0.207972,0 0.335312,0.131577 0.13157,0.131577 0.13157,0.339553 v 1.544967 h -0.58997 v -1.494034 h -1.434612 v 1.400657 l 1.842072,2.215584 q 0.18251,0.220709 0.18251,0.496596 z m 5.33523,0 q 0,0.207976 -0.13158,0.339553 -0.12733,0.131577 -0.3353,0.131577 h -1.6723 q -0.20798,0 -0.3438,-0.131577 -0.13158,-0.131577 -0.13158,-0.339553 v -1.685032 h 0.58998 v 1.634099 h 1.43461 v -1.583166 l -1.83359,-2.215585 q -0.191,-0.229198 -0.191,-0.505085 V 21.09966 q 0,-0.207976 0.13158,-0.339553 0.13582,-0.131577 0.3438,-0.131577 h 1.6723 q 0.20797,0 0.3353,0.131577 0.13158,0.131577 0.13158,0.339553 v 1.544967 h -0.58997 v -1.494034 h -1.43461 v 1.400657 l 1.84207,2.215584 q 0.18251,0.220709 0.18251,0.496596 z m 2.46176,0.47113 h -0.80219 q -0.47537,0 -0.47537,-0.479619 V 23.63782 h -0.4966 v -0.496597 h 0.4966 v -1.286057 h 0.55601 v 1.286057 h 0.72155 v 0.496597 h -0.72155 v 3.136622 h 0.72155 z m 3.08569,0 h -0.55601 v -0.114599 q -0.33956,0.04669 -0.67487,0.08913 -0.40746,0.05093 -0.67486,0.05093 -0.4584,0 -0.4584,-0.458397 v -3.696885 h 0.55602 v 3.62473 l 1.25211,-0.03396 v -3.590774 h 0.55601 z m 3.2682,0 h -0.56026 v -0.114599 q -0.90831,0.140066 -1.00593,0.140066 -0.36077,0 -0.58148,-0.241932 -0.22071,-0.246176 -0.22071,-0.611196 v -2.415071 q 0,-0.381998 0.25042,-0.632418 0.25042,-0.254665 0.62817,-0.254665 h 0.92953 V 20.62853 h 0.56026 z m -0.56026,-0.513574 V 23.63782 h -0.78097 q -0.46689,0 -0.46689,0.479618 v 2.207096 q 0,0.475374 0.46689,0.475374 0.11035,0 0.78097,-0.04244 z m 2.08825,-4.520301 h -0.57299 v -0.713062 h 0.57299 z m -0.008,5.033875 h -0.55602 v -4.129815 h 0.55602 z m 3.33186,-0.479619 q 0,0.479619 -0.47962,0.479619 h -1.41763 q -0.47538,0 -0.47538,-0.479619 v -3.170577 q 0,-0.479619 0.47538,-0.479619 h 1.41763 q 0.47962,0 0.47962,0.479619 z m -0.56451,-0.01698 V 23.63782 h -1.24361 v 3.136622 z"
     id="text2-5-8"
     transform="scale(1.0271802,0.97353901)"
     aria-label="Automate your OBS Studio" />
</svg>
