<?xml version="1.0" encoding="UTF-8" standalone="no"?>
<svg
   fill="none"
   viewBox="0 0 122.47851 119.6915"
   id="Obs-Studio-Logo--Streamline-Logos"
   height="119.6915"
   width="122.47851"
   version="1.1"
   sodipodi:docname="OBScheduler Logo.svg"
   xml:space="preserve"
   inkscape:version="1.4.2 (f4327f4, 2025-05-13)"
   xmlns:inkscape="http://www.inkscape.org/namespaces/inkscape"
   xmlns:sodipodi="http://sodipodi.sourceforge.net/DTD/sodipodi-0.dtd"
   xmlns="http://www.w3.org/2000/svg"
   xmlns:svg="http://www.w3.org/2000/svg"><sodipodi:namedview
     id="namedview1"
     pagecolor="#ffffff"
     bordercolor="#000000"
     borderopacity="0.25"
     inkscape:showpageshadow="2"
     inkscape:pageopacity="0.0"
     inkscape:pagecheckerboard="0"
     inkscape:deskcolor="#d1d1d1"
     inkscape:zoom="1.6621094"
     inkscape:cx="147.70388"
     inkscape:cy="165.75323"
     inkscape:window-width="1920"
     inkscape:window-height="1111"
     inkscape:window-x="-9"
     inkscape:window-y="-9"
     inkscape:window-maximized="1"
     inkscape:current-layer="Obs-Studio-Logo--Streamline-Logos"
     showgrid="false"><inkscape:grid
       id="grid65"
       units="px"
       originx="-77.954913"
       originy="-99.081983"
       spacingx="1"
       spacingy="1"
       empcolor="#0099e5"
       empopacity="0.30196078"
       color="#0099e5"
       opacity="0.14901961"
       empspacing="5"
       enabled="true"
       visible="false" /></sodipodi:namedview><defs
     id="defs1"><filter
       style="color-interpolation-filters:sRGB"
       inkscape:label="Hue to White"
       id="filter2-4"
       x="0"
       y="0"
       width="1"
       height="1"
       inkscape:menu-tooltip="Fades hue progressively to white"
       inkscape:menu="Color"><feColorMatrix
         values="1 0 0 0 0 0 1 0 0 0 0 0 1 0 0 -0.21 -0.72 -0.07 2 0 "
         result="fbSourceGraphic"
         id="feColorMatrix2-1" /><feColorMatrix
         result="fbSourceGraphicAlpha"
         in="fbSourceGraphic"
         values="0 0 0 -1 0 0 0 0 -1 0 0 0 0 -1 0 0 0 0 1 0"
         id="feColorMatrix3-1" /><feColorMatrix
         id="feColorMatrix4-3"
         values="0 0 1 0 0 0 1 0 0 0 1 0 0 0 0 -0.21 -0.72 -0.07 2 0 "
         result="fbSourceGraphic"
         in="fbSourceGraphic" /><feColorMatrix
         result="fbSourceGraphicAlpha"
         in="fbSourceGraphic"
         values="0 0 0 -1 0 0 0 0 -1 0 0 0 0 -1 0 0 0 0 1 0"
         id="feColorMatrix5-8" /><feColorMatrix
         id="feColorMatrix6-7"
         values="0 1 0 0 0 1 0 0 0 0 0 0 1 0 0 -0.21 -0.72 -0.07 2 0 "
         result="fbSourceGraphic"
         in="fbSourceGraphic" /><feColorMatrix
         result="fbSourceGraphicAlpha"
         in="fbSourceGraphic"
         values="0 0 0 -1 0 0 0 0 -1 0 0 0 0 -1 0 0 0 0 1 0"
         id="feColorMatrix19-4" /><feColorMatrix
         id="feColorMatrix20-2"
         values="1 0 0 0 0 1 0 0 0 0 1 0 0 0 0 0 0 0 0 1 "
         type="matrix"
         result="r"
         in="fbSourceGraphic" /><feColorMatrix
         id="feColorMatrix21-7"
         values="0 1 0 0 0 0 1 0 0 0 0 1 0 0 0 0 0 0 0 1 "
         type="matrix"
         result="g"
         in="fbSourceGraphic" /><feColorMatrix
         id="feColorMatrix22-7"
         values="0 0 1 0 0 0 0 1 0 0 0 0 1 0 0 0 0 0 0 1 "
         type="matrix"
         result="b"
         in="fbSourceGraphic" /><feBlend
         id="feBlend22-9"
         result="minrg"
         in="r"
         mode="darken"
         in2="g" /><feBlend
         id="feBlend23-3"
         result="p"
         in="minrg"
         mode="darken"
         in2="b" /><feBlend
         id="feBlend24-1"
         result="maxrg"
         in="r"
         mode="lighten"
         in2="g" /><feBlend
         id="feBlend25-9"
         result="q"
         in="maxrg"
         mode="lighten"
         in2="b" /><feComponentTransfer
         id="feComponentTransfer25-8"
         result="q2"
         in="q"><feFuncR
           id="feFuncR25-6"
           slope="0"
           type="linear" /></feComponentTransfer><feBlend
         id="feBlend26-5"
         result="pq"
         in="p"
         mode="lighten"
         in2="q2" /><feColorMatrix
         id="feColorMatrix26-0"
         values="-1 1 0 0 0 -1 1 0 0 0 -1 1 0 0 0 0 0 0 0 1 "
         type="matrix"
         result="qminp"
         in="pq" /><feComposite
         id="feComposite26-2"
         k3="1"
         operator="arithmetic"
         result="qminpc"
         in="qminp"
         in2="qminp"
         k1="0"
         k2="0"
         k4="0" /><feBlend
         id="feBlend27-8"
         result="result2"
         in2="fbSourceGraphic"
         mode="screen" /><feComposite
         id="feComposite27-6"
         operator="in"
         in="result2"
         in2="fbSourceGraphic"
         result="result1" /></filter></defs><desc
     id="desc1">
    Obs Studio Logo Streamline Icon: https://streamlinehq.com
  </desc><path
     d="m 13.45,57.558949 c -0.28,0 -0.53,-1.23 -0.53,-2.74 0,-1.51 0.22,-2.73 0.53,-2.73 h 13.479998 c 0.28,0 0.53,1.23 0.53,2.73 0,1.51 -0.22,2.74 -0.53,2.74 z m 21.489998,0 c -0.28,0 -0.53,-1.23 -0.53,-2.74 0,-1.51 0.22,-2.73 0.53,-2.73 h 13.48 c 0.28,0 0.53,1.23 0.53,2.73 0,1.51 -0.22,2.74 -0.53,2.74 z m 21.49,0 c -0.28,0 -0.53,-1.23 -0.53,-2.74 0,-1.51 0.22,-2.73 0.53,-2.73 h 13.48 c 0.28,0 0.53,1.22 0.53,2.72 -1.35,0.84 -2.65,1.76 -3.89,2.75 z M 13.48,73.238949 c -0.28,0 -0.53,-1.23 -0.53,-2.74 0,-1.51 0.22,-2.74 0.53,-2.74 h 13.479998 c 0.28,0 0.53,1.23 0.53,2.74 0,1.51 -0.22,2.74 -0.53,2.74 z m 21.489998,0 c -0.28,0 -0.53,-1.23 -0.53,-2.74 0,-1.51 0.22,-2.74 0.53,-2.74 h 13.48 c 0.28,0 0.53,1.23 0.53,2.74 0,1.51 -0.22,2.74 -0.53,2.74 z M 13.51,88.928949 c -0.28,0 -0.53,-1.23 -0.53,-2.74 0,-1.51 0.22,-2.74 0.53,-2.74 h 13.479998 c 0.28,0 0.53,1.23 0.53,2.74 0,1.51 -0.22,2.74 -0.53,2.74 z m 21.489998,0 c -0.28,0 -0.53,-1.23 -0.53,-2.74 0,-1.51 0.22,-2.74 0.53,-2.74 h 13.48 c 0.28,0 0.53,1.23 0.53,2.74 0,1.51 -0.22,2.74 -0.53,2.74 z M 5.44,38.938949 h 94.079998 v -20.4 c 0,-0.7 -0.28,-1.31 -0.73,-1.76 -0.45,-0.45 -1.09,-0.73 -1.76,-0.73 h -9.02 c -1.51,0 -2.74,-1.23 -2.74,-2.74 0,-1.51 1.23,-2.74 2.74,-2.74 h 9.02 c 2.21,0 4.190002,0.89 5.640002,2.34 1.45,1.45 2.34,3.43 2.34,5.64 v 32.39 c -1.8,-0.62 -3.65,-1.12 -5.550002,-1.49 v -5.06 h 0.06 H 5.44 v 52.83 c 0,0.7 0.28,1.31 0.73,1.76 0.45,0.45 1.09,0.73 1.76,0.73 h 44.709998 c 0.51,1.900001 1.15,3.750001 1.92,5.530001 H 7.98 c -2.2,0 -4.19,-0.89 -5.64,-2.34 C 0.89,101.45895 0,99.478949 0,97.268949 v -78.71 c 0,-2.2 0.89,-4.19 2.34,-5.64 1.45,-1.45 3.43,-2.34 5.64,-2.34 h 9.63 c 1.51,0 2.74,1.23 2.74,2.74 0,1.51 -1.23,2.74 -2.74,2.74 H 7.98 c -0.7,0 -1.31,0.28 -1.76,0.73 -0.45,0.45 -0.73,1.09 -0.73,1.76 v 20.4 H 5.44 Z m 37.629998,-22.89 c -1.51,0 -2.74,-1.23 -2.74,-2.74 0,-1.51 1.23,-2.74 2.74,-2.74 h 18.36 c 1.51,0 2.74,1.23 2.74,2.74 0,1.51 -1.23,2.74 -2.74,2.74 z"
     id="path1-6"
     style="fill:#000000;fill-opacity:1;stroke:none;stroke-opacity:1"
     sodipodi:nodetypes="ssssssssssssssssssccsssssssssssssssssssssssssssssccssssssssscccccsssccscsssssssssscccsssssss" /><path
     id="path1-61"
     style="fill:#000000;fill-opacity:1;stroke:none;stroke-width:0.553;stroke-dasharray:none;stroke-opacity:1"
     d="m 30.245808,0 c -2.74,0 -4.9414,1.818829 -4.9414,4.048829 v 17.7207 c 0,2.24 2.2014,4.05078 4.9414,4.05078 2.73,0 4.93946,-1.82078 4.93946,-4.05078 V 4.048829 C 35.185268,1.808829 32.985808,0 30.245808,0 Z m 0.0996,3.218749 c 1.39935,-0.009 1.87366,0.70382 1.88282,2.36328 l 0.0801,14.45703 c 0.009,1.65207 -0.46229,2.3086 -1.96289,2.3086 -1.55791,0 -2.04102,-0.54364 -2.04102,-2.20313 V 5.634769 c 0,-1.65209 0.5375,-2.40596 2.04102,-2.41602 z" /><path
     id="path1-61-2"
     style="fill:#000000;fill-opacity:1;stroke:none;stroke-width:0.553;stroke-dasharray:none;stroke-opacity:1"
     d="m 74.905968,0.035817 c -2.74,0 -4.94141,1.818832 -4.94141,4.048832 v 17.7207 c 0,2.24 2.20141,4.05078 4.94141,4.05078 2.73,0 4.93945,-1.82078 4.93945,-4.05078 v -17.7207 c 0,-2.24 -2.19945,-4.048832 -4.93945,-4.048832 z m 0.0996,3.218752 c 1.39935,-0.009 1.87365,0.70382 1.88281,2.36328 l 0.0801,14.45703 c 0.009,1.65207 -0.46229,2.30859 -1.96289,2.30859 -1.55791,0 -2.04102,-0.54363 -2.04102,-2.20312 V 5.670579 c 0,-1.65209 0.5375,-2.40595 2.04102,-2.41601 z" /><path
     d="m 90.958508,56.661499 c 4.26,0 8.33,0.85 12.050002,2.39 3.87,1.6 7.34,3.94 10.24,6.84 2.9,2.9 5.24,6.38 6.84,10.23 1.54,3.72 2.39,7.79 2.39,12.05 0,4.26 -0.85,8.33 -2.39,12.050001 -1.6,3.87 -3.94,7.34 -6.84,10.24 -2.9,2.9 -6.38,5.24 -10.23,6.84 -3.720002,1.54 -7.790002,2.39 -12.050002,2.39 -4.26,0 -8.33,-0.85 -12.05,-2.39 -3.87,-1.6 -7.34,-3.94 -10.24,-6.84 -2.9,-2.9 -5.24,-6.38 -6.84,-10.24 -1.54,-3.720001 -2.39,-7.790001 -2.39,-12.050001 0,-4.26 0.85,-8.33 2.39,-12.05 1.6,-3.87 3.94,-7.34 6.84,-10.24 2.9,-2.9 6.38,-5.24 10.23,-6.84 3.72,-1.53 7.78,-2.38 12.05,-2.38 z m 18.380002,13.13 c -2.4,-2.4 -5.26,-4.33 -8.43,-5.64 -3.060002,-1.27 -6.420002,-1.96 -9.950002,-1.96 -3.53,0 -6.89,0.7 -9.95,1.96 -3.17,1.31 -6.03,3.24 -8.43,5.64 -2.4,2.4 -4.33,5.26 -5.64,8.43 -1.27,3.06 -1.96,6.42 -1.96,9.95 0,3.53 0.7,6.89 1.96,9.95 1.31,3.170001 3.24,6.030001 5.64,8.430001 2.4,2.4 5.26,4.33 8.43,5.64 3.06,1.27 6.42,1.96 9.95,1.96 3.53,0 6.89,-0.7 9.950002,-1.96 3.17,-1.31 6.03,-3.24 8.43,-5.64 4.71,-4.71 7.61,-11.200001 7.61,-18.380001 0,-3.53 -0.7,-6.89 -1.96,-9.95 -1.32,-3.17 -3.25,-6.03 -5.65,-8.43 z"
     style="fill:#000000;fill-opacity:1"
     id="path1-3-4" /><path
     d="m 257.02468,287.86631 c 4.66462,-8.16314 3.07481,-18.46589 -3.83353,-24.84323 -6.90834,-6.37733 -17.3051,-7.13982 -25.06993,-1.83859 -9.28386,6.37644 -11.55249,19.11757 -5.04015,28.30661 0.75772,0.9424 -4.73769,8.03406 -7.62101,9.78738 -13.57062,7.80847 -30.85625,3.98133 -39.86246,-8.82578 5.46557,7.04178 14.90255,9.6655 23.21843,6.45533 8.31587,-3.21017 13.54209,-11.49433 12.8584,-20.38205 -0.8544,-11.22784 -10.73127,-19.585 -21.94564,-18.56895 -1.18228,0.19365 -2.33309,-0.48891 -2.73008,-1.61926 -1.18456,-3.21605 -1.79801,-6.61436 -1.81268,-10.0416 -0.0372,-15.94488 12.29941,-29.18546 28.20713,-30.27403 -12.496,1.24702 -20.83135,13.48112 -17.41924,25.56672 3.41212,12.0856 16.91485,18.15417 28.21797,12.68201 4.24922,-2.00503 18.71235,-9.43578 21.5422,-7.72049 14.52993,8.28891 19.58568,26.78952 11.29059,41.31593 z"
     transform="matrix(0.4561267,0,0,0.4561267,-7.232461,-32.488318)"
     style="clip-rule:evenodd;fill:#000000;fill-opacity:1;fill-rule:evenodd;stroke:none;stroke-width:0.219237;stroke-dasharray:none;stroke-opacity:1;paint-order:fill markers stroke;filter:url(#filter2-4)"
     id="path1-2-6" /></svg>
